<svg xmlns="http://www.w3.org/2000/svg" viewBox="0 0 84 80" role="img" aria-label="ChronoLux mark">
  <defs>
    <linearGradient id="clGoldGradMark" x1="0%" y1="0%" x2="100%" y2="100%">
      <stop offset="0%" stop-color="#e9cd7a"/>
      <stop offset="55%" stop-color="#c69a3a"/>
      <stop offset="100%" stop-color="#a9781f"/>
    </linearGradient>
    <linearGradient id="clGemGradMark" x1="0%" y1="0%" x2="100%" y2="100%">
      <stop offset="0%" stop-color="#ffffff"/>
      <stop offset="45%" stop-color="#d9e7ef"/>
      <stop offset="100%" stop-color="#9db7c4"/>
    </linearGradient>
  </defs>
  <g transform="translate(40,42)">
    <circle r="34" fill="none" stroke="url(#clGoldGradMark)" stroke-width="2.4"/>
    <circle r="26" fill="none" stroke="url(#clGoldGradMark)" stroke-width="1" opacity="0.55"/>
    <rect x="32" y="-5" width="8" height="10" rx="2.4" fill="url(#clGoldGradMark)"/>
    <g stroke="url(#clGoldGradMark)" stroke-width="1.6" stroke-linecap="round" opacity="0.85">
      <line x1="0" y1="-30" x2="0" y2="-25.5"/>
      <line x1="0" y1="30" x2="0" y2="25.5"/>
      <line x1="-30" y1="0" x2="-25.5" y2="0"/>
      <line x1="30" y1="0" x2="25.5" y2="0"/>
    </g>
    <line x1="0" y1="0" x2="0" y2="-18" stroke="url(#clGoldGradMark)" stroke-width="2.6" stroke-linecap="round"/>
    <line x1="0" y1="0" x2="13" y2="8" stroke="url(#clGoldGradMark)" stroke-width="2.6" stroke-linecap="round"/>
    <circle r="3" fill="url(#clGoldGradMark)"/>
    <polygon points="0,-40 6,-34 3.5,-28 -3.5,-28 -6,-34" fill="url(#clGemGradMark)" stroke="#7b93a1" stroke-width="0.6" stroke-linejoin="round"/>
    <path d="M -6,-34 L 6,-34 M -6,-34 L -3.5,-28 M 6,-34 L 3.5,-28 M 0,-40 L 0,-34" stroke="#7b93a1" stroke-width="0.5" opacity="0.75" fill="none"/>
  </g>
</svg>
